<svg xmlns="http://www.w3.org/2000/svg" width="20" height="20" viewBox="0 0 20 20">
  <g id="Group_5247" data-name="Group 5247" transform="translate(-410 -3880)">
    <circle id="Ellipse_288" data-name="Ellipse 288" cx="10" cy="10" r="10" transform="translate(410 3880)" fill="#636d76" opacity="0.7"/>
    <path id="angle-left-light_1_" data-name="angle-left-light (1)" d="M21.729,133.592l5.536-5.451a.564.564,0,0,1,.8,0l.334.334a.564.564,0,0,1,0,.8l-4.807,4.718,4.8,4.718a.564.564,0,0,1,0,.8l-.334.334a.564.564,0,0,1-.8,0l-5.536-5.451A.569.569,0,0,1,21.729,133.592Z" transform="translate(394.938 3756.508)" fill="#fff"/>
  </g>
</svg>
