<svg xmlns="http://www.w3.org/2000/svg" width="20" height="20" viewBox="0 0 20 20">
  <g id="Group_5246" data-name="Group 5246" transform="translate(-1490 -3881)">
    <g id="Group_5243" data-name="Group 5243">
      <g id="Group_5244" data-name="Group 5244">
        <circle id="Ellipse_287" data-name="Ellipse 287" cx="10" cy="10" r="10" transform="translate(1490 3881)" fill="#636d76" opacity="0.7"/>
        <path id="angle-right-regular_1_" data-name="angle-right-regular (1)" d="M7.546,102.163,2.156,107.6a.441.441,0,0,1-.624,0L.8,106.87a.441.441,0,0,1,0-.624l4.351-4.395L.8,97.456a.441.441,0,0,1,0-.624l.727-.727a.441.441,0,0,1,.624,0l5.39,5.434A.441.441,0,0,1,7.546,102.163Z" transform="translate(1495.825 3789.149)" fill="#fff"/>
      </g>
    </g>
  </g>
</svg>
